<svg version="1.1" id="Layer_1" xmlns="http://www.w3.org/2000/svg" xmlns:xlink="http://www.w3.org/1999/xlink" x="0px" y="0px"
	 width="100%" viewBox="0 0 343 343" enable-background="new 0 0 343 343" xml:space="preserve">
<path fill="#282828" opacity="1.000000" stroke="none" 
	d="
M153.000000,344.000000 
	C102.000000,344.000000 51.500000,344.000000 1.000000,344.000000 
	C1.000000,229.666672 1.000000,115.333336 1.000000,1.000000 
	C115.333336,1.000000 229.666672,1.000000 344.000000,1.000000 
	C344.000000,115.333336 344.000000,229.666672 344.000000,344.000000 
	C280.500000,344.000000 217.000000,344.000000 153.000000,344.000000 
M279.448730,198.442368 
	C278.324310,196.841934 277.199890,195.241501 275.204742,192.401688 
	C275.204742,198.736374 275.204742,203.510620 275.204742,208.284866 
	C275.514404,208.331970 275.824097,208.379059 276.133759,208.426163 
	C277.399841,206.562729 278.665924,204.699295 280.415833,203.225876 
	C282.480469,203.578735 284.604065,204.329727 286.573181,204.037918 
	C287.151733,203.952194 287.876312,200.768646 287.509766,199.252472 
	C286.781921,196.241837 283.593353,196.292908 279.448730,198.442368 
M156.459641,203.599579 
	C156.731018,202.978531 157.002396,202.357498 158.136490,201.820633 
	C162.353546,201.188171 159.807648,197.864426 160.243652,195.832184 
	C160.322098,195.466461 157.589539,194.163406 156.045593,193.872421 
	C154.296341,193.542725 152.382355,193.640320 150.617355,193.968399 
	C148.903961,194.286896 145.907974,195.080444 145.882217,195.757004 
	C145.795685,198.029419 144.738953,201.375717 149.057907,202.277740 
	C149.177536,202.855652 149.297165,203.433548 149.259415,204.730881 
	C148.149658,205.704620 147.039917,206.678375 145.764969,207.797089 
	C149.838242,208.135651 154.118256,208.565048 158.408997,208.775421 
	C159.123077,208.810425 159.883926,207.891388 159.725479,207.993881 
	C158.495056,206.434708 157.538025,205.221954 156.459641,203.599579 
M49.864010,126.695953 
	C49.888580,150.826828 49.898060,174.957748 49.970528,199.088486 
	C49.975544,200.757477 50.449757,202.425064 50.705776,204.093307 
	C51.271843,204.048080 51.837914,204.002869 52.403980,203.957657 
	C52.637962,198.966888 52.871944,193.976120 53.107540,188.950897 
	C66.282822,188.950897 78.946098,189.351471 91.566925,188.792801 
	C98.553772,188.483536 104.108452,189.779968 108.603508,195.418884 
	C111.052109,198.490585 114.164200,201.058807 117.144814,203.661987 
	C117.836800,204.266357 119.212997,204.087296 120.274368,204.268723 
	C120.401001,203.874191 120.527626,203.479660 120.654259,203.085144 
	C115.525505,198.201782 110.396759,193.318436 105.288521,188.454620 
	C105.721237,187.923935 105.871635,187.563766 106.132072,187.445068 
	C127.553017,177.682739 133.853394,157.991745 121.283379,138.559753 
	C115.631905,129.823135 106.726730,126.080559 96.445595,125.952988 
	C82.635513,125.781624 68.822632,125.836952 55.119560,125.159767 
	C55.689373,123.890053 56.259186,122.620331 56.878975,121.239250 
	C52.174755,121.250969 49.316631,123.330879 49.864010,126.695953 
M180.963623,187.485184 
	C180.963623,192.939224 180.963623,198.393280 180.963623,203.847321 
	C181.399185,203.988434 181.834763,204.129532 182.270325,204.270630 
	C182.783966,203.375748 183.666626,202.510406 183.741104,201.580338 
	C183.953339,198.930298 184.168991,196.203125 183.771729,193.599640 
	C183.162384,189.606003 184.818481,188.862259 188.430862,188.890030 
	C207.759857,189.038620 227.090607,188.960022 246.420746,188.959946 
	C248.880463,188.959946 251.340179,188.959946 254.155823,188.959946 
	C254.155823,192.283463 254.161179,195.077499 254.154678,197.871506 
	C254.142044,203.295746 254.139297,203.295746 256.654602,203.578766 
	C256.654602,177.746140 256.654602,151.901749 256.654602,126.057373 
	C256.141571,125.964149 255.628555,125.870918 255.115524,125.777695 
	C254.789322,127.178581 254.184235,128.578506 254.179382,129.980515 
	C254.120499,146.977432 254.157028,163.974640 254.145111,180.971771 
	C254.143997,182.559372 253.981979,184.146881 253.895645,185.716339 
	C230.417740,185.716339 207.355713,185.716339 183.854126,185.716339 
	C183.854126,183.526154 183.854187,181.724503 183.854111,179.922836 
	C183.853424,163.425568 183.879517,146.928177 183.807663,130.431229 
	C183.800995,128.900375 183.172653,127.372231 182.832977,125.842834 
	C182.209167,125.948830 181.585342,126.054832 180.961533,126.160828 
	C180.961533,146.270920 180.961533,166.380997 180.963623,187.485184 
M88.505051,121.469826 
	C88.505051,121.469826 88.522247,121.513428 88.505051,121.469826 
z"/>
<path fill="#E4E4E4" opacity="1.000000" stroke="none" 
	d="
M55.010948,125.794968 
	C68.822632,125.836952 82.635513,125.781624 96.445595,125.952988 
	C106.726730,126.080559 115.631905,129.823135 121.283379,138.559753 
	C133.853394,157.991745 127.553017,177.682739 106.132072,187.445068 
	C105.871635,187.563766 105.721237,187.923935 105.288521,188.454620 
	C110.396759,193.318436 115.525505,198.201782 120.654259,203.085144 
	C120.527626,203.479660 120.401001,203.874191 120.274368,204.268723 
	C119.212997,204.087296 117.836800,204.266357 117.144814,203.661987 
	C114.164200,201.058807 111.052109,198.490585 108.603508,195.418884 
	C104.108452,189.779968 98.553772,188.483536 91.566925,188.792801 
	C78.946098,189.351471 66.282822,188.950897 53.107540,188.950897 
	C52.871944,193.976120 52.637962,198.966888 52.403980,203.957657 
	C51.837914,204.002869 51.271843,204.048080 50.705776,204.093307 
	C50.449757,202.425064 49.975544,200.757477 49.970528,199.088486 
	C49.898060,174.957748 49.888580,150.826828 50.351746,126.332611 
	C52.229969,125.911179 53.620461,125.853073 55.010948,125.794968 
M53.388489,128.929977 
	C53.259109,129.286636 53.129730,129.643280 52.788067,130.916321 
	C52.788067,149.184464 52.788067,167.452606 52.788067,186.032196 
	C68.773224,186.032196 84.255562,186.527283 99.672913,185.743729 
	C104.577011,185.494492 109.969345,182.695770 113.985558,179.578537 
	C123.309998,172.341293 126.708794,162.302856 123.894966,150.720001 
	C120.673576,137.459396 111.479156,129.855148 98.375572,128.950531 
	C83.657288,127.934410 68.804535,128.866119 53.388489,128.929977 
z"/>
<path fill="#E1E1E1" opacity="1.000000" stroke="none" 
	d="
M180.962585,186.988129 
	C180.961533,166.380997 180.961533,146.270920 180.961533,126.160828 
	C181.585342,126.054832 182.209167,125.948830 182.832977,125.842834 
	C183.172653,127.372231 183.800995,128.900375 183.807663,130.431229 
	C183.879517,146.928177 183.853424,163.425568 183.854111,179.922836 
	C183.854187,181.724503 183.854126,183.526154 183.854126,185.716339 
	C207.355713,185.716339 230.417740,185.716339 253.895645,185.716339 
	C253.981979,184.146881 254.143997,182.559372 254.145111,180.971771 
	C254.157028,163.974640 254.120499,146.977432 254.179382,129.980515 
	C254.184235,128.578506 254.789322,127.178581 255.115524,125.777695 
	C255.628555,125.870918 256.141571,125.964149 256.654602,126.057373 
	C256.654602,151.901749 256.654602,177.746140 256.654602,203.578766 
	C254.139297,203.295746 254.142044,203.295746 254.154678,197.871506 
	C254.161179,195.077499 254.155823,192.283463 254.155823,188.959946 
	C251.340179,188.959946 248.880463,188.959946 246.420746,188.959946 
	C227.090607,188.960022 207.759857,189.038620 188.430862,188.890030 
	C184.818481,188.862259 183.162384,189.606003 183.771729,193.599640 
	C184.168991,196.203125 183.953339,198.930298 183.741104,201.580338 
	C183.666626,202.510406 182.783966,203.375748 182.270325,204.270630 
	C181.834763,204.129532 181.399185,203.988434 180.963623,203.847321 
	C180.963623,198.393280 180.963623,192.939224 180.962585,186.988129 
z"/>
<path fill="#E7E7E7" opacity="1.000000" stroke="none" 
	d="
M157.273788,201.736465 
	C157.002396,202.357498 156.731018,202.978531 156.193481,203.918640 
	C153.757156,204.162277 151.586975,204.086868 149.416794,204.011459 
	C149.297165,203.433548 149.177536,202.855652 148.968597,201.787292 
	C150.250473,199.822006 151.621658,198.347168 152.992859,196.872345 
	C154.419830,198.493713 155.846817,200.115097 157.273788,201.736465 
z"/>
<path fill="#EDEDED" opacity="1.000000" stroke="none" 
	d="
M279.929565,199.169205 
	C283.593353,196.292908 286.781921,196.241837 287.509766,199.252472 
	C287.876312,200.768646 287.151733,203.952194 286.573181,204.037918 
	C284.604065,204.329727 282.480469,203.578735 280.168701,203.029175 
	C279.921539,202.832489 279.921326,202.815109 279.944275,202.451431 
	C279.952515,201.118240 279.937866,200.148727 279.919678,199.169647 
	C279.916168,199.160065 279.929565,199.169205 279.929565,199.169205 
z"/>
<path fill="#1F1F1F" opacity="1.000000" stroke="none" 
	d="
M157.705139,201.778549 
	C155.846817,200.115097 154.419830,198.493713 152.992859,196.872345 
	C151.621658,198.347168 150.250473,199.822006 148.817963,201.615707 
	C144.738953,201.375717 145.795685,198.029419 145.882217,195.757004 
	C145.907974,195.080444 148.903961,194.286896 150.617355,193.968399 
	C152.382355,193.640320 154.296341,193.542725 156.045593,193.872421 
	C157.589539,194.163406 160.322098,195.466461 160.243652,195.832184 
	C159.807648,197.864426 162.353546,201.188171 157.705139,201.778549 
z"/>
<path fill="#313131" opacity="1.000000" stroke="none" 
	d="
M279.921326,202.815109 
	C279.921326,202.815109 279.921539,202.832489 279.926758,202.834167 
	C278.665924,204.699295 277.399841,206.562729 276.133759,208.426163 
	C275.824097,208.379059 275.514404,208.331970 275.204742,208.284866 
	C275.204742,203.510620 275.204742,198.736374 275.204742,192.401688 
	C277.199890,195.241501 278.324310,196.841934 279.689148,198.805786 
	C279.929565,199.169205 279.916168,199.160065 279.500397,199.174500 
	C278.484253,199.931580 277.883911,200.674225 277.283539,201.416885 
	C278.162811,201.882965 279.042053,202.349045 279.921326,202.815109 
z"/>
<path fill="#1A1A1A" opacity="1.000000" stroke="none" 
	d="
M149.338104,204.371170 
	C151.586975,204.086868 153.757156,204.162277 156.254166,204.123444 
	C157.538025,205.221954 158.495056,206.434708 159.725479,207.993881 
	C159.883926,207.891388 159.123077,208.810425 158.408997,208.775421 
	C154.118256,208.565048 149.838242,208.135651 145.764969,207.797089 
	C147.039917,206.678375 148.149658,205.704620 149.338104,204.371170 
z"/>
<path fill="#303030" opacity="1.000000" stroke="none" 
	d="
M55.065254,125.477371 
	C53.620461,125.853073 52.229969,125.911179 50.421249,125.992134 
	C49.316631,123.330879 52.174755,121.250969 56.878975,121.239250 
	C56.259186,122.620331 55.689373,123.890053 55.065254,125.477371 
z"/>
<path fill="#303030" opacity="1.000000" stroke="none" 
	d="
M88.513649,121.491623 
	C88.522247,121.513428 88.505051,121.469826 88.513649,121.491623 
z"/>
<path fill="#2A2A2A" opacity="1.000000" stroke="none" 
	d="
M54.010281,128.950439 
	C68.804535,128.866119 83.657288,127.934410 98.375572,128.950531 
	C111.479156,129.855148 120.673576,137.459396 123.894966,150.720001 
	C126.708794,162.302856 123.309998,172.341293 113.985558,179.578537 
	C109.969345,182.695770 104.577011,185.494492 99.672913,185.743729 
	C84.255562,186.527283 68.773224,186.032196 52.788067,186.032196 
	C52.788067,167.452606 52.788067,149.184464 53.096222,130.318115 
	C53.651165,129.498718 53.853134,129.242233 54.010281,128.950439 
z"/>
<path fill="#1E1E1E" opacity="1.000000" stroke="none" 
	d="
M53.699387,128.940216 
	C53.853134,129.242233 53.651165,129.498718 53.202362,129.859924 
	C53.129730,129.643280 53.259109,129.286636 53.699387,128.940216 
z"/>
<path fill="#282828" opacity="1.000000" stroke="none" 
	d="
M279.944275,202.451431 
	C279.042053,202.349045 278.162811,201.882965 277.283539,201.416885 
	C277.883911,200.674225 278.484253,199.931580 279.503906,199.184067 
	C279.937866,200.148727 279.952515,201.118240 279.944275,202.451431 
z"/>
</svg>